<svg id="Capa_1" enable-background="new 0 0 512 512" height="512" viewBox="0 0 512 512" width="512" xmlns="http://www.w3.org/2000/svg"><g><path d="m0 91v330h512v-330zm482 262.401-127.278-97.403 127.278-97.4zm-452-194.813 127.275 97.411-127.275 97.412zm11.804 223.569s70.034-53.607 140.151-107.269l37.62 28.792c10.556 8.06 23.152 12.32 36.425 12.32 13.283 0 25.878-4.263 36.423-12.329.708-.54 37.617-28.785 37.617-28.785l140.163 107.264c3.217 2.464 5.841 5.475 7.793 8.85h-443.989c1.953-3.373 4.578-6.381 7.797-8.843zm428.404-252.312c-1.782 1.364-196.012 149.998-196.012 149.998-5.265 4.028-11.557 6.157-18.196 6.157-6.638 0-12.938-2.132-18.208-6.155-1.702-1.302-195.988-150.002-195.988-150.002-3.219-2.462-5.843-5.47-7.797-8.843h443.99c-1.952 3.374-4.574 6.383-7.789 8.845z"/></g></svg>